<svg width="34" height="37" viewBox="0 0 34 37" fill="none" xmlns="http://www.w3.org/2000/svg">
<path d="M3.85 34H30.15L27 12H7L3.85 34ZM17 9C17.8667 9 18.5833 8.70833 19.15 8.125C19.7167 7.54167 20 6.83333 20 6C20 5.13333 19.7167 4.41667 19.15 3.85C18.5833 3.28333 17.8667 3 17 3C16.1667 3 15.4583 3.28333 14.875 3.85C14.2917 4.41667 14 5.13333 14 6C14 6.83333 14.2917 7.54167 14.875 8.125C15.4583 8.70833 16.1667 9 17 9ZM22.2 9H27C27.7667 9 28.4333 9.24167 29 9.725C29.5667 10.2083 29.9 10.8333 30 11.6L33.1 33.6C33.2333 34.5 33.0083 35.2917 32.425 35.975C31.8417 36.6583 31.0833 37 30.15 37H3.85C2.91667 37 2.15834 36.6583 1.575 35.975C0.991669 35.2917 0.766669 34.5 0.900002 33.6L4 11.6C4.1 10.8333 4.43334 10.2083 5 9.725C5.56667 9.24167 6.23334 9 7 9H11.8C11.5333 8.53333 11.3333 8.05833 11.2 7.575C11.0667 7.09167 11 6.56667 11 6C11 4.33333 11.5833 2.91667 12.75 1.75C13.9167 0.583333 15.3333 0 17 0C18.6667 0 20.0833 0.583333 21.25 1.75C22.4167 2.91667 23 4.33333 23 6C23 6.56667 22.9333 7.09167 22.8 7.575C22.6667 8.05833 22.4667 8.53333 22.2 9ZM3.85 34H30.15H3.85Z" fill="#1D1D1D"/>
</svg>
