<svg width="34" height="32" viewBox="0 0 34 32" fill="none" xmlns="http://www.w3.org/2000/svg">
<path d="M7.34988 32C6.88322 32 6.49988 31.8167 6.19988 31.45C5.89988 31.0833 5.81655 30.6667 5.94988 30.2L7.64988 23.5H1.89988C1.43322 23.5 1.04155 23.3083 0.724884 22.925C0.408218 22.5417 0.316551 22.1167 0.449884 21.65C0.516551 21.3167 0.683218 21.0417 0.949884 20.825C1.21655 20.6083 1.53322 20.5 1.89988 20.5H8.39988L10.6499 11.5H3.89988C3.43322 11.5 3.04155 11.3083 2.72488 10.925C2.40822 10.5417 2.31655 10.1167 2.44988 9.65C2.51655 9.31667 2.68322 9.04167 2.94988 8.825C3.21655 8.60833 3.53322 8.5 3.89988 8.5H11.3999L13.2499 1.1C13.3166 0.766667 13.4749 0.5 13.7249 0.3C13.9749 0.1 14.2666 0 14.5999 0C15.0666 0 15.4416 0.183334 15.7249 0.55C16.0082 0.916667 16.0999 1.33333 15.9999 1.8L14.3499 8.5H23.3999L25.2499 1.1C25.3166 0.766667 25.4749 0.5 25.7249 0.3C25.9749 0.1 26.2665 0 26.5999 0C27.0665 0 27.4415 0.183334 27.7249 0.55C28.0082 0.916667 28.0999 1.33333 27.9999 1.8L26.3499 8.5H32.0999C32.5665 8.5 32.9582 8.69167 33.2749 9.075C33.5916 9.45833 33.6832 9.88333 33.5499 10.35C33.4832 10.6833 33.3166 10.9583 33.0499 11.175C32.7832 11.3917 32.4665 11.5 32.0999 11.5H25.5999L23.3499 20.5H30.0999C30.5665 20.5 30.9582 20.6917 31.2749 21.075C31.5916 21.4583 31.6832 21.8833 31.5499 22.35C31.4832 22.6833 31.3165 22.9583 31.0499 23.175C30.7832 23.3917 30.4665 23.5 30.0999 23.5H22.5999L20.7499 30.9C20.6832 31.1667 20.5416 31.4167 20.3249 31.65C20.1082 31.8833 19.7832 32 19.3499 32C18.8832 32 18.4999 31.8167 18.1999 31.45C17.8999 31.0833 17.8166 30.6667 17.9499 30.2L19.6499 23.5H10.5999L8.74988 30.9C8.68322 31.1667 8.54155 31.4167 8.32488 31.65C8.10822 31.8833 7.78322 32 7.34988 32ZM11.3499 20.5H20.3999L22.6499 11.5H13.5999L11.3499 20.5Z" fill="#1D1D1D"/>
</svg>
