<svg width="36" height="24" viewBox="0 0 36 24" fill="none" xmlns="http://www.w3.org/2000/svg">
<path d="M10.5 24H1.5C1.06667 24 0.708333 23.8583 0.425 23.575C0.141667 23.2917 0 22.9333 0 22.5C0 22.0667 0.141667 21.7083 0.425 21.425C0.708333 21.1417 1.06667 21 1.5 21H10.5C10.9333 21 11.2917 21.1417 11.575 21.425C11.8583 21.7083 12 22.0667 12 22.5C12 22.9333 11.8583 23.2917 11.575 23.575C11.2917 23.8583 10.9333 24 10.5 24ZM34.5 3H1.5C1.06667 3 0.708333 2.85833 0.425 2.575C0.141667 2.29167 0 1.93333 0 1.5C0 1.06667 0.141667 0.708333 0.425 0.425C0.708333 0.141667 1.06667 0 1.5 0H34.5C34.9333 0 35.2917 0.141667 35.575 0.425C35.8583 0.708333 36 1.06667 36 1.5C36 1.93333 35.8583 2.29167 35.575 2.575C35.2917 2.85833 34.9333 3 34.5 3ZM22.5 13.5H1.5C1.06667 13.5 0.708333 13.3583 0.425 13.075C0.141667 12.7917 0 12.4333 0 12C0 11.5667 0.141667 11.2083 0.425 10.925C0.708333 10.6417 1.06667 10.5 1.5 10.5H22.5C22.9333 10.5 23.2917 10.6417 23.575 10.925C23.8583 11.2083 24 11.5667 24 12C24 12.4333 23.8583 12.7917 23.575 13.075C23.2917 13.3583 22.9333 13.5 22.5 13.5Z" fill="#1D1D1D"/>
</svg>
