<svg width="28" height="28" viewBox="0 0 28 28" fill="none" xmlns="http://www.w3.org/2000/svg">
<path d="M14 16.1L3.49995 26.6C3.19995 26.9 2.84995 27.05 2.44995 27.05C2.04995 27.05 1.69995 26.9 1.39995 26.6C1.09995 26.3 0.949951 25.95 0.949951 25.55C0.949951 25.15 1.09995 24.8 1.39995 24.5L11.9 14L1.39995 3.5C1.09995 3.2 0.949951 2.85 0.949951 2.45C0.949951 2.05 1.09995 1.7 1.39995 1.4C1.69995 1.1 2.04995 0.95 2.44995 0.95C2.84995 0.95 3.19995 1.1 3.49995 1.4L14 11.9L24.5 1.4C24.7999 1.1 25.15 0.95 25.5499 0.95C25.9499 0.95 26.2999 1.1 26.5999 1.4C26.8999 1.7 27.0499 2.05 27.0499 2.45C27.0499 2.85 26.8999 3.2 26.5999 3.5L16.1 14L26.5999 24.5C26.8999 24.8 27.0499 25.15 27.0499 25.55C27.0499 25.95 26.8999 26.3 26.5999 26.6C26.2999 26.9 25.9499 27.05 25.5499 27.05C25.15 27.05 24.7999 26.9 24.5 26.6L14 16.1Z" fill="#1D1D1D"/>
</svg>
